# xmcd
# 
# Track frame offsets:
#     150
#     12375
#     28715
#     53140
#     72258
#     91588
#     109453
#     124448
#     163265
#     182260
#     205423
#     224443
#     238088
#     258493
#     270095
#     291635
# 
# Disc length: 4202
# 
# Revision: 5
# Processed by: cddbd v1.5.2PL0 Copyright (c) Steve Scherf et al.
# Submitted via: fre:ac v1.0.17
# 
DISCID=f2106810
DTITLE=B.B. King - Ain't Nobody Home!: The Very Best Of
DYEAR=1989
DGENRE=Blues
TTITLE0=Every Day I Have The Blues
TTITLE1=Ain't Nobody Home
TTITLE2=The Thrill Is Gone
TTITLE3=Inflation Blues
TTITLE4=Sweet Sixteen
TTITLE5=Rock Me Baby
TTITLE6=Caldonia
TTITLE7=Why I Sing The Blues
TTITLE8=Into The Night
TTITLE9=Don't Answer The Door
TTITLE10=Sweet Little Angel
TTITLE11=Please Love Me
TTITLE12=Nightlife - Please Send Someone To Love
TTITLE13=Paying The Cost To Be The Boss
TTITLE14=Darling You Know I Love You
TTITLE15=How Blue Can You Get
EXTD=
EXTT0=
EXTT1=
EXTT2=
EXTT3=
EXTT4=
EXTT5=
EXTT6=
EXTT7=
EXTT8=
EXTT9=
EXTT10=
EXTT11=
EXTT12=
EXTT13=
EXTT14=
EXTT15=
PLAYORDER=
